<?xml version="1.0" encoding="UTF-8"?>
<svg id="Layer_2" data-name="Layer 2" xmlns="http://www.w3.org/2000/svg" viewBox="0 0 31.06 30.39">
  <defs>
    <style>
      .cls-1 {
        fill: #231f20;
        stroke-width: 0px;
      }
    </style>
  </defs>
  <g id="Layer_1-2" data-name="Layer 1">
    <g>
      <path class="cls-1" d="M6.24,8.09v-.72h-3.22c-.16,0-.27-.14-.27-.3v-.86c0-.16.12-.3.27-.3h5.43c.16,0,.27.14.27.3v7.81c0,.16-.12.3-.27.3H.29C.14,14.31,0,14.17,0,14.01V.6C0,.44.14.3.29.3h7.66c.16,0,.27.14.27.3v3.78c0,.16-.12.28-.27.28H1.94c-.18,0-.31.14-.31.32v2.78c0,.2.14.32.31.32h4.3Z"/>
      <path class="cls-1" d="M13.98.3c.16,0,.27.12.27.28v12.75h1.92c.16,0,.29.14.29.3v.38c0,.16-.14.3-.29.3h-6.39c-.16,0-.27-.14-.27-.3V.58c0-.16.12-.28.27-.28h4.2Z"/>
      <path class="cls-1" d="M19.3,14.61c-3.48,0-3.42-4.64-3.42-7.31S15.81,0,19.29,0s3.42,4.64,3.42,7.31.06,7.31-3.42,7.31ZM20.14,2.62c0-.46-.37-.84-.84-.84s-.82.38-.82.84.37.84.82.84.84-.38.84-.84Z"/>
      <path class="cls-1" d="M27.27,14.61c-2.09,0-3.79-1.74-3.79-3.88V.58c0-.16.12-.28.27-.28h4.03c.16,0,.29.12.29.28v11.45c0,.26.2.46.45.46.24,0,.45-.2.45-.46V.58c0-.16.12-.28.27-.28h1.52c.16,0,.29.12.29.28v10.15c0,2.14-1.72,3.88-3.79,3.88Z"/>
      <path class="cls-1" d="M6.24,23.86v-.72h-3.22c-.16,0-.27-.14-.27-.3v-.86c0-.16.12-.3.27-.3h5.43c.16,0,.27.14.27.3v7.81c0,.16-.12.3-.27.3H.29c-.16,0-.29-.14-.29-.3v-13.41c0-.16.14-.3.29-.3h7.66c.16,0,.27.14.27.3v3.78c0,.16-.12.28-.27.28H1.94c-.18,0-.31.14-.31.32v2.78c0,.2.14.32.31.32h4.3Z"/>
      <path class="cls-1" d="M13.98,16.08c.16,0,.27.12.27.28v12.75h1.92c.16,0,.29.14.29.3v.38c0,.16-.14.3-.29.3h-6.39c-.16,0-.27-.14-.27-.3v-13.43c0-.16.12-.28.27-.28h4.2Z"/>
      <path class="cls-1" d="M19.38,30.39c-3.48.04-3.48-4.6-3.51-7.27s-.15-7.31,3.33-7.35,3.48,4.6,3.51,7.26.15,7.31-3.33,7.35ZM20.08,18.39c0-.46-.38-.84-.85-.83s-.82.39-.81.85.38.84.83.83.84-.39.83-.85Z"/>
      <path class="cls-1" d="M27.27,30.39c-2.09,0-3.79-1.74-3.79-3.88v-10.15c0-.16.12-.28.27-.28h4.03c.16,0,.29.12.29.28v11.45c0,.26.2.46.45.46.24,0,.45-.2.45-.46v-11.45c0-.16.12-.28.27-.28h1.52c.16,0,.29.12.29.28v10.15c0,2.14-1.72,3.88-3.79,3.88Z"/>
    </g>
  </g>
</svg>